<?xml version="1.0" standalone="no"?>
<!DOCTYPE svg PUBLIC "-//W3C//DTD SVG 20010904//EN"
 "http://www.w3.org/TR/2001/REC-SVG-20010904/DTD/svg10.dtd">
<svg version="1.0" xmlns="http://www.w3.org/2000/svg"
 width="5925.000000pt" height="1274.000000pt" viewBox="0 0 5925.000000 1274.000000"
 preserveAspectRatio="xMidYMid meet">

<g transform="translate(0.000000,1274.000000) scale(0.100000,-0.100000)"
fill="#000000" stroke="none">
<path d="M10 11490 l0 -1240 3293 0 c3000 0 3298 -1 3348 -16 86 -26 144 -60
207 -122 62 -59 92 -109 123 -201 18 -52 19 -123 19 -2026 0 -1903 -1 -1974
-19 -2026 -31 -91 -61 -140 -120 -200 -61 -61 -123 -97 -210 -123 -49 -14
-247 -16 -2083 -16 l-2028 0 0 920 0 920 -1265 0 -1265 0 0 -3680 0 -3680
1265 0 1265 0 2 1518 3 1517 1190 5 c1291 6 1247 5 1608 66 1220 205 2321 882
3077 1889 197 263 397 601 530 895 439 974 545 2046 305 3090 -157 684 -483
1355 -929 1915 -796 999 -1933 1640 -3191 1799 -270 35 -374 36 -2751 36
l-2374 0 0 -1240z"/>
<path d="M19225 12555 c-493 -39 -961 -148 -1410 -328 -1624 -650 -2785 -2126
-3021 -3842 -44 -320 -44 -319 -44 -2812 l0 -2373 1240 0 1240 0 0 3283 c0
3614 -4 3349 61 3464 40 69 113 142 181 181 116 66 -25 62 2125 62 2121 0
1998 3 2113 -55 67 -34 161 -128 195 -194 59 -117 55 142 55 -3443 l0 -3298
1245 0 1245 0 0 2233 c0 2212 -5 2555 -35 2824 -160 1421 -943 2701 -2140
3497 -219 146 -344 217 -590 337 -760 368 -1619 530 -2460 464z"/>
<path d="M10800 7885 l0 -4565 1265 0 1265 0 0 4565 0 4565 -1265 0 -1265 0 0
-4565z"/>
<path d="M39960 10635 c-928 -103 -1688 -548 -2179 -1275 -268 -398 -434 -819
-511 -1299 -39 -241 -45 -340 -44 -691 0 -348 9 -471 50 -729 90 -568 324
-1111 666 -1543 96 -122 319 -346 438 -442 454 -362 1003 -582 1612 -646 125
-13 446 -13 579 0 1369 135 2409 1087 2723 2491 103 460 119 1092 40 1574
-108 659 -409 1260 -854 1706 -488 489 -1105 775 -1840 854 -164 18 -520 18
-680 0z m525 -1076 c534 -68 1012 -456 1295 -1052 281 -592 313 -1498 78
-2177 -84 -243 -258 -545 -420 -730 -238 -272 -538 -447 -883 -517 -139 -28
-416 -25 -554 5 -484 108 -884 452 -1146 987 -133 269 -200 515 -247 895 -17
143 -17 670 0 815 34 280 108 555 202 752 265 558 683 913 1192 1013 132 26
322 29 483 9z"/>
<path d="M29880 10624 c-676 -37 -1113 -162 -1584 -452 -210 -130 -463 -341
-622 -519 -465 -523 -734 -1161 -840 -1993 -21 -164 -29 -622 -15 -806 79
-1000 485 -1846 1111 -2316 319 -239 599 -359 990 -424 96 -17 216 -18 1342
-21 1348 -4 1314 -5 1412 52 64 37 134 111 165 174 59 119 56 24 56 1676 l0
1520 -33 67 c-52 106 -147 179 -277 214 -68 19 -1995 19 -2065 1 -81 -21 -81
-17 -78 -494 3 -380 4 -414 21 -430 17 -17 57 -18 602 -21 l585 -3 0 -805 0
-805 -612 3 -613 4 -98 26 c-184 50 -329 139 -488 297 -340 342 -559 837 -625
1417 -20 184 -20 519 1 687 57 462 214 856 465 1162 69 84 212 222 295 287
326 249 763 351 1321 308 524 -41 835 -130 1138 -328 44 -29 90 -52 102 -52
12 0 35 13 51 29 15 16 122 200 237 410 114 209 215 386 222 392 23 19 16 43
-27 108 -46 69 -70 85 -324 217 -422 219 -816 345 -1247 399 -121 15 -442 26
-568 19z"/>
<path d="M33075 10473 c-37 -10 -77 -46 -96 -87 -18 -40 -19 -135 -19 -2961 0
-3161 -3 -2991 53 -3101 32 -64 116 -148 178 -179 114 -58 3 -55 1995 -55
l1831 0 28 22 c15 12 36 40 46 62 17 38 19 74 19 469 0 469 1 459 -60 511
l-32 26 -1364 0 -1364 0 -2 2583 -3 2582 -26 45 c-55 93 1 85 -618 86 -300 1
-555 0 -566 -3z"/>
<path d="M44610 10470 c-94 -13 -185 -62 -226 -123 -19 -27 -39 -65 -46 -85
-10 -30 -13 -614 -16 -2915 -2 -3143 -6 -2949 55 -3073 37 -77 88 -126 159
-155 l59 -24 965 -3 c972 -3 1139 1 1405 34 727 90 1248 328 1589 725 229 266
353 541 400 890 90 662 -90 1166 -539 1510 -164 126 -382 231 -607 294 -32 8
-58 18 -58 21 0 3 26 17 58 30 413 183 733 584 806 1013 19 110 21 351 5 486
-24 199 -81 384 -164 529 -260 456 -739 724 -1445 810 -297 36 -359 38 -1345
41 -544 2 -1019 -1 -1055 -5z m1927 -946 c276 -41 501 -149 607 -294 58 -79
102 -187 122 -301 23 -132 15 -383 -16 -489 -27 -93 -80 -196 -132 -255 -89
-101 -259 -195 -439 -242 l-104 -27 -462 -3 -463 -4 0 815 0 816 391 0 c302 0
415 -4 496 -16z m218 -2617 c291 -49 477 -136 623 -292 79 -85 148 -213 176
-327 38 -158 39 -403 1 -548 -35 -134 -111 -264 -217 -367 -130 -128 -254
-194 -458 -245 -81 -20 -114 -22 -657 -25 l-573 -4 0 916 0 917 503 -5 c406
-3 521 -7 602 -20z"/>
<path d="M51205 10470 c-201 -28 -397 -166 -482 -343 -19 -38 -338 -1130 -837
-2862 -443 -1540 -816 -2822 -828 -2850 -16 -37 -22 -70 -23 -126 0 -66 3 -81
28 -117 15 -23 45 -51 67 -62 40 -20 53 -21 498 -18 440 3 459 4 503 24 95 44
170 138 218 272 16 42 97 350 182 684 l154 608 1085 0 1085 0 49 -183 c309
-1147 334 -1228 407 -1311 35 -41 104 -71 190 -85 37 -6 240 -11 483 -11 l419
0 32 34 c70 75 96 172 71 276 -22 99 -1644 5617 -1668 5680 -70 179 -221 314
-423 378 -43 13 -132 16 -600 18 -302 1 -577 -2 -610 -6z m955 -2472 c194
-706 355 -1289 358 -1295 3 -10 -150 -13 -743 -13 -593 0 -746 3 -743 13 3 6
175 589 384 1295 208 705 382 1282 385 1282 3 0 164 -577 359 -1282z"/>
<path d="M55203 10473 c-34 -7 -91 -69 -103 -112 -7 -27 -9 -952 -7 -2978 2
-2723 4 -2941 19 -2985 39 -109 122 -209 210 -254 112 -57 5 -54 1994 -54
l1831 0 27 21 c15 11 35 38 46 60 19 36 20 60 20 470 0 428 0 432 -22 471 -13
22 -35 46 -50 54 -23 12 -240 14 -1388 14 l-1360 0 0 2573 0 2572 -24 50 c-13
28 -36 61 -50 75 l-28 25 -546 1 c-301 1 -557 0 -569 -3z"/>
</g>
</svg>
